<mxfile host="app.diagrams.net" agent="Mozilla/5.0 (Windows NT 10.0; Win64; x64) AppleWebKit/537.36 (KHTML, like Gecko) Chrome/131.0.0.0 Safari/537.36" version="26.0.3">
  <diagram name="第 1 页" id="CzWibHVvIaoQvVzCCbZx">
    <mxGraphModel>
      <root>
        <mxCell id="0" />
        <mxCell id="1" parent="0" />
        <mxCell id="2" value="新加坡服务器" style="whiteSpace=wrap;strokeWidth=2;" vertex="1" parent="1">
          <mxGeometry x="1268" y="8" width="400" height="208" as="geometry" />
        </mxCell>
        <mxCell id="3" value="澳洲服务器" style="whiteSpace=wrap;strokeWidth=2;" vertex="1" parent="1">
          <mxGeometry x="848" y="8" width="400" height="208" as="geometry" />
        </mxCell>
        <mxCell id="4" value="德国服务器" style="whiteSpace=wrap;strokeWidth=2;" vertex="1" parent="1">
          <mxGeometry x="428" y="8" width="400" height="208" as="geometry" />
        </mxCell>
        <mxCell id="5" value="美国服务器" style="whiteSpace=wrap;strokeWidth=2;" vertex="1" parent="1">
          <mxGeometry x="8" y="8" width="400" height="208" as="geometry" />
        </mxCell>
        <mxCell id="6" value="获取流量统计" style="fillColor=none;strokeColor=none;" vertex="1" parent="1">
          <mxGeometry x="133" y="33" width="156" height="54" as="geometry" />
        </mxCell>
        <mxCell id="7" value="记录到Redis" style="fillColor=none;strokeColor=none;" vertex="1" parent="1">
          <mxGeometry x="46" y="137" width="145" height="54" as="geometry" />
        </mxCell>
        <mxCell id="8" value="同步数据" style="fillColor=none;strokeColor=none;" vertex="1" parent="1">
          <mxGeometry x="241" y="137" width="124" height="54" as="geometry" />
        </mxCell>
        <mxCell id="9" value="获取流量统计" style="fillColor=none;strokeColor=none;" vertex="1" parent="1">
          <mxGeometry x="553" y="33" width="156" height="54" as="geometry" />
        </mxCell>
        <mxCell id="10" value="记录到Redis" style="fillColor=none;strokeColor=none;" vertex="1" parent="1">
          <mxGeometry x="466" y="137" width="145" height="54" as="geometry" />
        </mxCell>
        <mxCell id="11" value="同步数据" style="fillColor=none;strokeColor=none;" vertex="1" parent="1">
          <mxGeometry x="661" y="137" width="124" height="54" as="geometry" />
        </mxCell>
        <mxCell id="12" value="获取流量统计" style="fillColor=none;strokeColor=none;" vertex="1" parent="1">
          <mxGeometry x="973" y="33" width="156" height="54" as="geometry" />
        </mxCell>
        <mxCell id="13" value="记录到Redis" style="fillColor=none;strokeColor=none;" vertex="1" parent="1">
          <mxGeometry x="886" y="137" width="145" height="54" as="geometry" />
        </mxCell>
        <mxCell id="14" value="同步数据" style="fillColor=none;strokeColor=none;" vertex="1" parent="1">
          <mxGeometry x="1081" y="137" width="124" height="54" as="geometry" />
        </mxCell>
        <mxCell id="15" value="获取流量统计" style="fillColor=none;strokeColor=none;" vertex="1" parent="1">
          <mxGeometry x="1393" y="33" width="156" height="54" as="geometry" />
        </mxCell>
        <mxCell id="16" value="记录到Redis" style="fillColor=none;strokeColor=none;" vertex="1" parent="1">
          <mxGeometry x="1306" y="137" width="145" height="54" as="geometry" />
        </mxCell>
        <mxCell id="17" value="同步数据" style="fillColor=none;strokeColor=none;" vertex="1" parent="1">
          <mxGeometry x="1501" y="137" width="124" height="54" as="geometry" />
        </mxCell>
        <mxCell id="18" value="主Redis服务器" style="fillColor=none;strokeColor=none;" vertex="1" parent="1">
          <mxGeometry x="670" y="266" width="161" height="54" as="geometry" />
        </mxCell>
        <mxCell id="19" value="数据同步服务器" style="fillColor=none;strokeColor=none;" vertex="1" parent="1">
          <mxGeometry x="665" y="370" width="172" height="54" as="geometry" />
        </mxCell>
        <mxCell id="20" value="数据分析系统" style="fillColor=none;strokeColor=none;" vertex="1" parent="1">
          <mxGeometry x="673" y="474" width="156" height="54" as="geometry" />
        </mxCell>
        <mxCell id="21" value="" style="curved=1;startArrow=circle;startFill=0;endArrow=circle;endFill=0;exitX=0.19;exitY=1;entryX=0.5;entryY=0;" edge="1" parent="1" source="6" target="7">
          <mxGeometry relative="1" as="geometry">
            <Array as="points">
              <mxPoint x="118" y="112" />
            </Array>
          </mxGeometry>
        </mxCell>
        <mxCell id="22" value="" style="curved=1;startArrow=none;endArrow=circle;endFill=0;exitX=0.81;exitY=1;entryX=0.5;entryY=0;" edge="1" parent="1" source="6" target="8">
          <mxGeometry relative="1" as="geometry">
            <Array as="points">
              <mxPoint x="303" y="112" />
            </Array>
          </mxGeometry>
        </mxCell>
        <mxCell id="23" value="" style="curved=1;startArrow=circle;startFill=0;endArrow=circle;endFill=0;exitX=0.19;exitY=1;entryX=0.5;entryY=0;" edge="1" parent="1" source="9" target="10">
          <mxGeometry relative="1" as="geometry">
            <Array as="points">
              <mxPoint x="538" y="112" />
            </Array>
          </mxGeometry>
        </mxCell>
        <mxCell id="24" value="" style="curved=1;startArrow=none;endArrow=circle;endFill=0;exitX=0.81;exitY=1;entryX=0.5;entryY=0;" edge="1" parent="1" source="9" target="11">
          <mxGeometry relative="1" as="geometry">
            <Array as="points">
              <mxPoint x="723" y="112" />
            </Array>
          </mxGeometry>
        </mxCell>
        <mxCell id="25" value="" style="curved=1;startArrow=circle;startFill=0;endArrow=circle;endFill=0;exitX=0.19;exitY=1;entryX=0.5;entryY=0;" edge="1" parent="1" source="12" target="13">
          <mxGeometry relative="1" as="geometry">
            <Array as="points">
              <mxPoint x="958" y="112" />
            </Array>
          </mxGeometry>
        </mxCell>
        <mxCell id="26" value="" style="curved=1;startArrow=none;endArrow=circle;endFill=0;exitX=0.81;exitY=1;entryX=0.5;entryY=0;" edge="1" parent="1" source="12" target="14">
          <mxGeometry relative="1" as="geometry">
            <Array as="points">
              <mxPoint x="1143" y="112" />
            </Array>
          </mxGeometry>
        </mxCell>
        <mxCell id="27" value="" style="curved=1;startArrow=circle;startFill=0;endArrow=circle;endFill=0;exitX=0.19;exitY=1;entryX=0.5;entryY=0;" edge="1" parent="1" source="15" target="16">
          <mxGeometry relative="1" as="geometry">
            <Array as="points">
              <mxPoint x="1378" y="112" />
            </Array>
          </mxGeometry>
        </mxCell>
        <mxCell id="28" value="" style="curved=1;startArrow=none;endArrow=circle;endFill=0;exitX=0.81;exitY=1;entryX=0.5;entryY=0;" edge="1" parent="1" source="15" target="17">
          <mxGeometry relative="1" as="geometry">
            <Array as="points">
              <mxPoint x="1563" y="112" />
            </Array>
          </mxGeometry>
        </mxCell>
        <mxCell id="29" value="" style="curved=1;startArrow=none;endArrow=circle;endFill=0;exitX=0.5;exitY=1;entryX=0;entryY=0.38;" edge="1" parent="1" source="7" target="18">
          <mxGeometry relative="1" as="geometry">
            <Array as="points">
              <mxPoint x="118" y="241" />
            </Array>
          </mxGeometry>
        </mxCell>
        <mxCell id="30" value="" style="curved=1;startArrow=none;endArrow=block;exitX=0.5;exitY=1;entryX=0;entryY=0.13;" edge="1" parent="1" source="10" target="18">
          <mxGeometry relative="1" as="geometry">
            <Array as="points">
              <mxPoint x="538" y="241" />
            </Array>
          </mxGeometry>
        </mxCell>
        <mxCell id="31" value="" style="curved=1;startArrow=none;endArrow=block;exitX=0.5;exitY=1;entryX=1;entryY=0.13;" edge="1" parent="1" source="13" target="18">
          <mxGeometry relative="1" as="geometry">
            <Array as="points">
              <mxPoint x="958" y="241" />
            </Array>
          </mxGeometry>
        </mxCell>
        <mxCell id="32" value="" style="curved=1;startArrow=none;endArrow=block;exitX=0.5;exitY=1;entryX=1;entryY=0.38;" edge="1" parent="1" source="16" target="18">
          <mxGeometry relative="1" as="geometry">
            <Array as="points">
              <mxPoint x="1378" y="241" />
            </Array>
          </mxGeometry>
        </mxCell>
        <mxCell id="33" value="" style="curved=1;startArrow=none;endArrow=circle;endFill=0;exitX=0.5;exitY=1;entryX=0.5;entryY=0;" edge="1" parent="1" source="18" target="19">
          <mxGeometry relative="1" as="geometry">
            <Array as="points" />
          </mxGeometry>
        </mxCell>
        <mxCell id="34" value="" style="curved=1;startArrow=none;endArrow=circle;endFill=0;exitX=0.5;exitY=1;entryX=0.5;entryY=0;" edge="1" parent="1" source="19" target="20">
          <mxGeometry relative="1" as="geometry">
            <Array as="points" />
          </mxGeometry>
        </mxCell>
      </root>
    </mxGraphModel>
  </diagram>
</mxfile>
